:SAMPLES-PER-SECOND 30
:FULLY-SPECIFIED
:DEGREES
33
root  76.3281 38.4941 -1.65572 -176.609 -88.6376 172.907
RightUpLeg  -1.49507 -1.71409 -0.4274
RightLeg  18.7462 6.74904 1.20159
RightFoot  -15.1873 -0.139682 -1.10009
RightToes  -9.31324e-010 0 -3.6325e-017
Spine  0.677539 -0.0813977 8.22285
Spine1  8.91543 0.675167 -1.3452
HEad  -10.5189 0.00983379 -4.24228
LeftShoulder1  -0.336418 4.36508 -32.9238
LeftArm  16.7429 8.22404 -41.4288
LeftForeArm  20.9123 -20.7651 -4.82353
LeftHand  -0.122623 8.61306 -2.62056
RightShoulder  -1.04871 -6.20609 32.2253
RightArm  20.2636 -1.19259 44.4909
RightForeArm  16.5669 9.85655 8.46855
RightHand  -0.146726 4.03185 -2.07042
LeftUpLeg  -1.15398 2.38538 5.08652
LeftLeg  21.1429 4.04271 2.03448
LeftFoot  -13.2958 0.0087614 -4.23553
LeftToes  8.61288e-010 -5.99147e-011 2.1039e-011
34
root  76.001 38.3311 -1.80981 162.721 -89.8946 -166.977
RightUpLeg  -0.813093 -2.15471 0.208867
RightLeg  20.028 5.88118 1.18656
RightFoot  -16.2609 -0.177821 -1.58621
RightToes  -9.31324e-010 0 -3.6325e-017
Spine  1.76398 -0.314181 8.52732
Spine1  8.71443 0.363454 -0.200261
HEad  -10.1763 -0.996296 -3.71318
LeftShoulder1  -0.356747 4.41207 -33.1429
LeftArm  16.8924 8.2008 -40.9707
LeftForeArm  20.6954 -21.7158 -4.35794
LeftHand  -0.077922 7.17241 -2.38847
RightShoulder  -1.05479 -6.21296 32.3494
RightArm  20.2654 -1.08119 43.6545
RightForeArm  16.5828 9.71016 8.50252
RightHand  -0.0781546 3.40979 -1.27242
LeftUpLeg  -4.01162 2.14003 5.76265
LeftLeg  28.1583 4.59007 2.99974
LeftFoot  -12.1543 0.0320296 -6.27388
LeftToes  8.61288e-010 -5.99147e-011 2.1039e-011
35
root  75.6974 38.2003 -1.94354 10.6986 -89.0359 -15.1382
RightUpLeg  -0.536513 -2.34326 0.334455
RightLeg  21.1635 5.01343 1.10292
RightFoot  -17.4417 -0.21149 -1.75498
RightToes  -9.31324e-010 0 -3.6325e-017
Spine  2.59052 -0.315357 9.04652
Spine1  8.66083 0.504692 -0.118713
HEad  -9.81785 -1.91093 -2.97956
LeftShoulder1  -0.386942 4.49347 -32.9517
LeftArm  16.9756 7.68697 -40.9525
LeftForeArm  19.9586 -22.3813 -4.1475
LeftHand  -0.0751002 7.74871 -1.48857
RightShoulder  -1.07387 -6.26091 32.3713
RightArm  19.5275 -0.553223 43.5338
RightForeArm  16.6797 8.73008 8.69497
RightHand  -0.11481 4.51935 -1.6343
LeftUpLeg  -7.85147 2.1082 5.4904
LeftLeg  35.562 5.58023 4.6636
LeftFoot  -8.90984 0.141896 -5.24175
LeftToes  8.61288e-010 -5.99147e-011 2.1039e-011
36
root  75.3265 38.1293 -2.01946 -11.9693 -87.9702 7.76934
RightUpLeg  -0.334402 -3.33186 -0.116752
RightLeg  21.7647 4.97474 1.13836
RightFoot  -18.4105 -0.243566 -1.92889
RightToes  -9.31324e-010 0 -3.6325e-017
Spine  3.32483 -0.114218 9.59599
Spine1  7.60715 0.890908 -0.397924
HEad  -8.79148 -3.0503 -2.77918
LeftShoulder1  -0.356168 4.40964 -33.2181
LeftArm  16.9071 7.44161 -40.3893
LeftForeArm  19.7909 -22.7411 -4.08574
LeftHand  -0.0749578 7.89875 -1.78517
RightShoulder  -1.05141 -6.1879 32.5781
RightArm  19.1164 -0.721309 42.8841
RightForeArm  17.4187 8.18829 8.70121
RightHand  -0.0644058 4.27966 -1.06443
LeftUpLeg  -12.038 2.25204 4.21784
LeftLeg  41.3553 5.7747 5.73285
LeftFoot  -5.82151 0.144652 -2.11965
LeftToes  8.61288e-010 -5.99147e-011 2.1039e-011
37
root  74.8128 38.14 -2.10926 -18.0937 -87.1249 14.048
RightUpLeg  0.71873 -4.17115 -0.508659
RightLeg  21.2341 5.07061 0.938952
RightFoot  -18.9059 -0.262147 -2.03247
RightToes  -9.31324e-010 0 -3.6325e-017
Spine  3.29623 0.493533 9.46063
Spine1  7.33289 1.40722 -0.0384504
HEad  -7.88467 -4.43911 -2.99412
LeftShoulder1  -0.290101 4.22753 -33.9254
LeftArm  17.5782 7.48104 -39.6195
LeftForeArm  18.3496 -23.3653 -4.08279
LeftHand  -0.0901983 10.5994 -0.567838
RightShoulder  -1.09032 -6.28554 32.6157
RightArm  18.8049 -0.662178 42.3371
RightForeArm  17.8898 7.37631 8.82646
RightHand  -0.103251 3.65508 -1.55147
LeftUpLeg  -14.8814 2.8939 2.92216
LeftLeg  43.3765 2.29385 2.72748
LeftFoot  -6.92733 0.214052 -4.45006
LeftToes  8.61288e-010 -5.99147e-011 2.1039e-011
38
root  74.3013 38.1427 -2.15887 -23.4285 -86.2186 19.8579
RightUpLeg  1.37459 -5.34421 -1.26024
RightLeg  20.8229 5.47726 1.00873
RightFoot  -19.5378 -0.280325 -2.06785
RightToes  -9.31324e-010 0 -3.6325e-017
Spine  2.2785 0.841669 10.2113
Spine1  8.57581 1.97297 -1.36157
HEad  -8.3114 -4.89949 -3.04772
LeftShoulder1  -0.305948 4.27583 -33.4864
LeftArm  16.2286 7.20773 -39.8251
LeftForeArm  19.0216 -23.4238 -4.05484
LeftHand  -0.0430739 7.93731 -0.0656727
RightShoulder  -1.07147 -6.25655 32.3401
RightArm  18.9447 -0.0529868 42.8807
RightForeArm  16.9316 7.36624 8.92955
RightHand  -0.177865 4.64049 -2.36124
LeftUpLeg  -17.5182 3.38717 1.10731
LeftLeg  42.6726 0.266384 0.672268
LeftFoot  -6.99892 0.289097 -6.51155
LeftToes  8.61288e-010 -5.99147e-011 2.1039e-011
39
root  73.7687 38.2246 -2.21787 -32.8446 -85.8064 29.9872
RightUpLeg  2.09825 -6.21289 -2.22178
RightLeg  19.6792 6.37285 1.14627
RightFoot  -19.6008 -0.292344 -2.21303
RightToes  -9.31324e-010 0 -3.6325e-017
Spine  1.85157 1.40265 10.2156
Spine1  8.71437 2.60558 -2.35265
HEad  -9.3471 -5.6456 -3.63348
LeftShoulder1  -0.311342 4.29262 -33.3432
LeftArm  14.7875 7.87324 -39.7414
LeftForeArm  19.4738 -23.4651 -4.03183
LeftHand  -0.0511918 7.16101 -0.689964
RightShoulder  -1.01761 -6.14894 31.8882
RightArm  19.484 0.47744 43.6004
RightForeArm  17.0012 7.86347 8.98027
RightHand  -0.157061 3.0257 -2.38063
LeftUpLeg  -19.5352 4.81945 -0.814996
LeftLeg  39.1749 -0.89737 -0.435577
LeftFoot  -7.00901 0.308379 -7.03197
LeftToes  8.61288e-010 -5.99147e-011 2.1039e-011
40
root  73.1954 38.2789 -2.24585 -35.9639 -85.1418 33.3444
RightUpLeg  3.57655 -6.93583 -2.96827
RightLeg  18.2711 6.80774 1.07709
RightFoot  -19.7708 -0.285343 -2.05784
RightToes  -9.31324e-010 0 -3.6325e-017
Spine  2.5776 1.46049 10.7203
Spine1  8.07111 2.97102 -4.07991
HEad  -10.0705 -5.42878 -3.52198
LeftShoulder1  -0.329112 4.34665 -32.9162
LeftArm  13.9994 8.72012 -39.7432
LeftForeArm  19.9719 -23.4768 -4.0081
LeftHand  -0.0611486 7.78695 -0.899224
RightShoulder  -1.00933 -6.1213 31.9697
RightArm  20.6924 0.967877 43.8889
RightForeArm  15.4513 9.23326 8.88083
RightHand  -0.202412 3.66379 -2.86023
LeftUpLeg  -20.678 5.29735 -2.5511
LeftLeg  34.1248 0.127409 0.427293
LeftFoot  -6.84359 0.330317 -7.36347
LeftToes  8.61288e-010 -5.99147e-011 2.1039e-011
41
root  72.5608 38.3122 -2.26041 -39.2819 -84.7781 36.8067
RightUpLeg  5.27608 -7.52008 -3.62017
RightLeg  16.7542 7.37569 0.995021
RightFoot  -19.9504 -0.28581 -2.00447
RightToes  -9.31324e-010 0 -3.6325e-017
Spine  2.92847 1.76108 10.324
Spine1  8.13079 3.25767 -4.36268
HEad  -10.7839 -4.9308 -4.01286
LeftShoulder1  -0.303818 4.27474 -33.2657
LeftArm  14.0515 9.61987 -39.3091
LeftForeArm  19.9897 -23.5901 -4.02468
LeftHand  -0.0751055 8.26267 -1.36499
RightShoulder  -0.986096 -6.07891 31.7024
RightArm  22.5376 2.11596 44.1338
RightForeArm  13.7409 10.5315 8.84657
RightHand  -0.17326 4.37018 -2.32925
LeftUpLeg  -21.2039 5.52789 -3.97338
LeftLeg  27.9355 1.47298 1.18615
LeftFoot  -6.68589 0.308209 -6.58887
LeftToes  8.61288e-010 -5.99147e-011 2.1039e-011
42
root  71.8996 38.3251 -2.2668 -43.4853 -84.7666 41.4393
RightUpLeg  6.56078 -7.86082 -4.16115
RightLeg  15.4173 7.99285 1.02253
RightFoot  -20.0214 -0.305017 -2.23448
RightToes  -9.31324e-010 0 -3.6325e-017
Spine  2.81916 1.9514 10.2126
Spine1  8.65392 3.57226 -5.21485
HEad  -11.3784 -4.8505 -4.02311
LeftShoulder1  -0.374816 4.45972 -33.0898
LeftArm  13.9432 9.97911 -39.5666
LeftForeArm  20.1552 -22.0685 -4.22908
LeftHand  -0.0858022 8.61321 -1.30076
RightShoulder  -0.993526 -6.0998 31.6856
RightArm  23.824 4.14751 44.8775
RightForeArm  12.1947 10.8924 9.00924
RightHand  -0.222519 4.95239 -2.7923
LeftUpLeg  -21.7256 5.73741 -5.09254
LeftLeg  21.2267 1.85387 1.16258
LeftFoot  -6.02462 0.336918 -6.48053
LeftToes  8.61288e-010 -5.99147e-011 2.1039e-011
43
root  71.2126 38.2546 -2.22534 -42.428 -84.4249 40.9127
RightUpLeg  7.55227 -8.07754 -4.52035
RightLeg  14.7322 8.03218 1.01508
RightFoot  -20.6266 -0.306034 -2.05208
RightToes  -9.31324e-010 0 -3.6325e-017
Spine  2.84841 1.99081 10.0117
Spine1  8.62984 3.66584 -5.7449
HEad  -11.9117 -5.37664 -3.65601
LeftShoulder1  -0.48936 4.75914 -32.8303
LeftArm  13.3213 9.7871 -39.9833
LeftForeArm  21.6475 -19.7117 -5.2575
LeftHand  -0.0780563 8.22563 -1.27273
RightShoulder  -1.00034 -6.08334 32.1793
RightArm  26.1433 5.52245 44.9028
RightForeArm  10.8132 12.8594 8.46268
RightHand  -0.152535 3.94667 -2.18928
LeftUpLeg  -22.3131 4.28522 -5.71286
LeftLeg  14.7645 1.72371 0.624412
LeftFoot  -4.87093 0.373838 -6.09043
LeftToes  8.61288e-010 -5.99147e-011 2.1039e-011
44
root  70.4377 38.176 -2.18628 -40.9841 -84.1879 39.8609
RightUpLeg  8.98231 -8.28157 -4.7788
RightLeg  13.6866 8.02777 0.951027
RightFoot  -20.9365 -0.285093 -1.70604
RightToes  -9.31324e-010 0 -3.6325e-017
Spine  3.03566 2.01081 9.08327
Spine1  8.42813 3.52784 -5.33153
HEad  -12.229 -5.05092 -3.62664
LeftShoulder1  -0.500713 4.77964 -33.0908
LeftArm  11.511 10.1837 -39.7416
LeftForeArm  24.8926 -17.4202 -6.58216
LeftHand  -0.11742 8.83624 -2.16402
RightShoulder  -1.06501 -6.25941 32.0758
RightArm  27.5381 6.93342 45.3983
RightForeArm  10.4703 13.5834 8.27124
RightHand  -0.0453947 3.15608 -0.737278
LeftUpLeg  -22.4237 1.16528 -5.1274
LeftLeg  8.87023 3.00304 -0.289869
LeftFoot  -3.99397 0.361483 -5.26281
LeftToes  8.61288e-010 -5.99147e-011 2.1039e-011
45
root  69.5273 38.096 -2.09862 -44.6539 -84.2152 43.6668
RightUpLeg  10.8997 -8.45772 -5.45972
RightLeg  12.6162 8.47638 0.869502
RightFoot  -21.151 -0.273761 -1.52832
RightToes  -9.31324e-010 0 -3.6325e-017
Spine  3.05756 2.05562 8.24448
Spine1  8.5906 3.59782 -5.41244
HEad  -12.4191 -4.37886 -3.55487
LeftShoulder1  -0.464465 4.67742 -33.4538
LeftArm  8.87028 11.0219 -39.2216
LeftForeArm  29.4851 -15.2974 -7.67518
LeftHand  -0.163557 8.91492 -3.63205
RightShoulder  -1.00245 -6.12758 31.6181
RightArm  27.3104 7.62975 46.4542
RightForeArm  12.702 13.8276 8.01033
RightHand  0.172223 3.02491 2.28807
LeftUpLeg  -22.5145 -1.30758 -4.826
LeftLeg  5.3537 4.50787 -0.558417
LeftFoot  -3.45326 0.258058 -3.439
LeftToes  8.61288e-010 -5.99147e-011 2.1039e-011
